<?xml version="1.0" standalone="no"?>
<!DOCTYPE svg PUBLIC "-//W3C//DTD SVG 20010904//EN"
 "http://www.w3.org/TR/2001/REC-SVG-20010904/DTD/svg10.dtd">
<svg version="1.0" xmlns="http://www.w3.org/2000/svg"
 width="776.000000pt" height="776.000000pt" viewBox="0 0 776.000000 776.000000"
 preserveAspectRatio="xMidYMid meet">
<metadata>
Created by potrace 1.11, written by Peter Selinger 2001-2013
</metadata>
<g transform="translate(0.000000,776.000000) scale(0.100000,-0.100000)"
fill="#000000" stroke="none">
<path d="M7295 6802 c-222 -32 -404 -171 -505 -383 -73 -156 -66 -295 35 -654
44 -155 57 -233 57 -325 -1 -159 -78 -303 -227 -426 -59 -49 -136 -91 -298
-164 -124 -55 -264 -135 -340 -191 -151 -114 -335 -243 -369 -261 -146 -75
-216 -88 -452 -83 -105 2 -200 6 -211 8 -12 3 -72 8 -135 12 -63 4 -123 9
-135 11 -29 6 -402 6 -455 0 -25 -3 -81 -8 -126 -11 -44 -3 -92 -7 -105 -10
-13 -2 -49 -6 -80 -10 -31 -3 -66 -7 -77 -10 -11 -2 -37 -6 -58 -9 -179 -28
-405 -75 -579 -121 -86 -22 -182 -38 -235 -38 -24 -1 -178 14 -202 18 -12 3
-38 7 -58 9 -249 33 -287 28 -584 -73 -100 -34 -185 -48 -267 -45 -73 3 -199
13 -224 18 -11 2 -51 7 -88 11 -37 3 -77 8 -88 10 -11 2 -75 7 -142 10 -67 3
-140 8 -162 11 -124 19 -267 89 -353 174 -28 28 -56 50 -61 50 -6 0 -17 -13
-26 -30 -18 -35 -13 -80 16 -129 l20 -33 -26 6 c-66 17 -136 49 -146 68 -9 16
-13 18 -20 7 -11 -18 -2 -50 32 -125 50 -105 43 -123 -96 -265 -55 -57 -94
-107 -110 -141 -23 -52 -28 -73 -40 -189 -3 -31 -15 -87 -26 -125 -33 -114
-33 -136 -2 -170 77 -83 177 -142 256 -150 94 -10 385 -9 432 1 68 15 148 3
233 -36 l71 -31 -5 -42 c-6 -50 -37 -195 -63 -291 -10 -38 -21 -116 -24 -172
-4 -86 -9 -112 -34 -166 -58 -123 -175 -268 -360 -447 -139 -133 -436 -417
-497 -473 -49 -46 -109 -78 -191 -102 -138 -39 -199 -139 -132 -214 91 -103
191 -132 318 -95 104 30 260 131 397 258 99 92 215 191 267 227 49 35 87 57
230 134 125 67 202 122 332 237 70 61 157 134 193 160 36 27 70 52 76 57 31
25 126 64 185 77 35 7 119 23 159 29 70 12 116 27 184 62 62 32 75 35 125 29
31 -3 81 -12 111 -20 80 -22 256 -115 304 -161 100 -98 176 -254 271 -560 26
-82 53 -169 60 -193 l14 -42 -69 -45 c-95 -62 -130 -107 -126 -160 6 -88 75
-133 182 -120 32 3 61 8 64 10 4 2 37 9 75 15 119 19 192 95 212 220 13 84 8
237 -11 346 -2 11 -7 37 -10 58 -4 22 -27 102 -51 178 -24 76 -46 150 -48 165
-3 16 -10 48 -15 73 -24 103 -30 216 -17 310 10 77 4 74 91 56 11 -2 54 -7 95
-10 41 -4 96 -9 122 -11 26 -2 101 -7 166 -10 116 -5 130 -7 226 -20 42 -6
174 -30 275 -50 14 -3 41 -8 60 -11 19 -2 58 -9 85 -14 28 -5 84 -12 125 -14
151 -10 246 -42 340 -117 30 -23 60 -48 66 -54 6 -5 66 -62 134 -125 244 -227
289 -282 276 -336 -8 -30 -128 -154 -269 -276 l-78 -68 -76 0 c-90 0 -138 -22
-180 -83 -39 -56 -40 -135 -3 -172 38 -38 77 -44 239 -40 170 4 206 9 281 38
211 81 387 237 668 592 49 62 60 88 55 133 -6 61 -19 91 -81 186 -29 43 -57
97 -63 120 -13 44 -16 142 -7 191 17 91 21 106 30 111 5 4 56 -17 111 -44 85
-43 188 -79 274 -97 193 -39 430 -112 523 -161 98 -51 153 -105 234 -227 122
-185 201 -349 237 -497 29 -117 75 -161 168 -162 88 0 142 49 174 158 16 55
16 152 0 162 -6 4 -13 34 -16 67 -8 70 -16 105 -30 123 -5 6 -6 12 -2 12 6 0
-29 70 -156 308 -16 29 -50 114 -75 188 -27 79 -71 176 -105 236 -32 56 -62
120 -68 142 -10 38 -15 43 -85 74 -68 31 -195 109 -256 157 -68 54 -200 200
-236 261 -52 88 -88 191 -120 341 -8 39 -62 197 -84 246 -17 38 -112 173 -235
332 -18 23 -14 45 17 114 22 46 77 141 88 151 3 3 18 23 34 45 47 64 189 200
357 342 86 73 178 156 204 185 109 121 198 269 244 407 47 139 55 193 55 371
0 140 -4 185 -27 295 -15 72 -31 144 -35 160 -5 17 -8 64 -7 105 2 94 26 144
124 255 78 89 146 213 156 286 9 58 -12 103 -52 115 -28 8 -101 12 -138 6z"/>
</g>
</svg>
