<?xml version="1.0" encoding="utf-8"?>
<!DOCTYPE svg PUBLIC "-//W3C//DTD SVG 1.1//EN" "http://www.w3.org/Graphics/SVG/1.1/DTD/svg11.dtd">
<svg version="1.1" id="Layer_1" xmlns="http://www.w3.org/2000/svg" xmlns:xlink="http://www.w3.org/1999/xlink" x="0px" y="0px"
	 viewBox="132.0978 -23.8051 1146.9022 1968.738" enable-background="new 132.0978 -23.8051 1146.9022 1968.738"
	 xml:space="preserve">
<g>
	<path d="M994.1,34.23c3.54-1.4,7.72-2.39,11.34-0.66c3.54,1.81,4.99,5.89,5.8,9.54c1.86,9.88,0.22,19.96-0.89,29.82
		c6.97,32,0.37,64.84,2.91,97.17c1.16,19.4,6.98,39.54,21.0599,53.59c17.8501,19.49,30.4401,43.32,38.9801,68.21
		c4.5699,13.03,7.9099,26.44,10.98,39.89c7.11,0.47,14.25,0.64,21.38,0.98c0.01,0.73,0.0499,2.19,0.0599,2.92
		c-6.9199-0.03-13.84-0.61-20.76-0.75c4.5601,21.35,7.78,42.96,11.89,64.38c6.6901,0.2,13.48-0.77,20.2101-0.73
		c-0.1101,0.75-0.3301,2.24-0.4401,2.98c-6.4301,0.23-12.85,0.6-19.27,0.89c2.34,12.58,4.88,25.13,8.09,37.52
		c1.51,6.87,4.4,13.33,6.5701,20c25.3,73.73,41.87,150.86,44.7,228.9c-9.89,37.69-21.85,74.82-35.46,111.32
		c-14.28,38.45-30.4,76.16-45.88,114.13c-19.67,48.4-38.73,98.13-43.08,150.65c-0.37,8.39-1.8501,16.74-1.7101,25.15
		c-1.2,5.4,0.26,11.0599,3.2301,15.65l0.3799,1.5699c0.1001-0.15,0.3-0.45,0.39-0.6l0.17-0.27c0.15,2.55,2.05,4.49,2.87,6.85
		c3.53,7.17,5.54,15.04,8.71,22.3c5.8101,3.8199,12.99,4.6899,19.63,6.3099c25.0701,4.5601,50.73,6.3301,76.17,4.55
		c11.78-1.04,23.78-2.7,34.63-7.6799c4.97-2.3101,9.66-5.6201,12.63-10.3201c4.3099-6.5599,11.0499-11.24,18.41-13.78
		c8.6699-3.0499,17.96-3.58,27.0699-3.87c1.71-0.02,3.4401-0.0599,5.1901-0.0699l0.7799,0.27c4.9301,10.12,6.99,22.0699,3.61,33.01
		c-4.4299,14.61-16.1499,25.58-28.49,33.85c-16.6799,11.14-35.51,18.58-54.5,24.74c-23.6,7.27-47.83,12.64-72.39,15.25
		c-5.6399,0.4399-11.3899,1.17-17.0099,0.15c1.0399,25.0499-0.3701,50.25-4.64,74.96c-3.88,20.62-9.7001,41.8101-23.15,58.4
		c-10.8201,18.46-16.53,40.13-14.5601,61.5499c1.62,20.37,9.1801,39.76,18.6901,57.67c14.0499,26.13,32.13,49.75,48.85,74.1801
		c5.47,21.97,0.37,44.86-6.37,65.96c-6.88,22.03-15.9401,43.53-19.5699,66.4399c-1.51,9.51-1.9401,19.2001-0.9701,28.79
		c-5.51,24.26-4.46,49.3201-5.14,74.03c-0.5399,21.9299-1.0299,44.2999-7.72,65.39c-3.61,11.12-9.41,21.9-18.51,29.48
		c-9.97,8.4299-23.12,12.2999-36,12.9c-4.03-0.74-8,1.1699-12.02,0.5699c-2.44-0.52-2.73-3.1-3.25-5.0599
		c-6.91-3.64-14.69-5.03-22.27-6.5701c-12.96-2.49-26.1-4.64-38.51-9.28c-7.59-2.8899-14.96-6.87-20.65-12.76
		c-5.94-6.08-9.66-14.3099-10.34-22.7599c2.49-11.4901,7.99-22.3301,16.19-30.79c12.74-13.14,29.28-21.85,42-35.04
		c13.45-13.37,22.19-30.85,26.93-49.08c3.57-13.39,5.4-27.1901,6.28-41c0.79-6.38-0.85-12.6801-1.32-19.01
		c-1.95-16.73-3.68-33.5-6.41-50.12c-1.54-8.2001-3.0699-17.17-9.33-23.24c-3.99-3.73-7.32-8.4501-12.61-10.42
		c-17.81-8.3199-36.93-13.24-55.72-18.79c-22.83-6.5599-45.92-12.47-67.99-21.33c-7-3.12-14.36-6.2-19.78-11.79
		c4.52,12.0701,5.36,25.0701,7.08,37.76c2.19,21.5701,3.18,44.11-4.34,64.8201c-5.93,16.58-18.31,29.5-28.23,43.7
		c-7.39,10.14-13.47,21.22-18.22,32.8301c-1.76,3.6799-1.95,7.84-3.26,11.6799c-5.29,19.38-16.85,37-32.77,49.3
		c-16.04,12.58-35.51,20.12-55.31,24.37c-14.53,3.11-29.38,4.4199-44.22,4.74c-18.39,2.5599-37.23-3.61-51.9301-14.62
		c-9.36-7.09-17.52-16.41-21.24-27.7001c-2.8-8.22-2.26-17.62,2.16-25.1699c6.24-10.7001,17.58-17.0801,28.82-21.36
		c1.66-1.13,3.58-0.15,5.39-0.11c10.86,0.33,21.1-4.2001,31.84-4.91c11.94-0.27,24.21-2.74,34.29-9.4501
		c12.76-8.35,20.54-22.2,26-36.0699c4.58-10.9301,6.89-22.61,11.18-33.62c6.27-18.23,5.8701-38.6901-1.67-56.48
		c-9.26-22.55-26.08-40.7101-42.22-58.52c-17.41-19.23-35.96-38.28-47-62.11c-5.73-6.4401-7.9-15.0801-9.72-23.29
		c-5.16-27.04-4.11-54.87-0.89-82.08c3.15-24.52,8.8-48.74,17.14-72.02c0.83-2.86,2.7-5.23,4.12-7.8
		c10.89-18.13,20.05-37.34,26.33-57.5599c7.68-24.48,13.77-49.4301,20.88-74.0701c2.33-8.5499,5.06-17.0199,7.15-25.61
		c-2.61-25.5699-2.45-51.33-1.59-77c1.91-49.24,7.16-98.3199,14.55-147.03c5.33-33.44,11.32-66.85,19.99-99.61l-1.31,0.29
		c-8.22,7.05-19.06,11.92-30.07,10.65c-11.14-1.35-20.61-8.35-28.15-16.26c-14.44-15.22-23.54-34.36-34.07-52.26l-0.74-0.38
		c-17.39,9.9-35.42,18.82-54.39,25.29c-17.89,6.09-36.79,9.69-55.74,9.15c-12.26-0.4-24.5-5.9-32.09-15.69
		c-9.09-11.48-12.15-26.55-12.33-40.9c-0.37,0-1.09-0.0099-1.45-0.0099c-17.16,9.55-33.48,20.7-48.26,33.65
		c-14.3,12.54-27.38,26.99-35.83,44.18c-3.2,6.36-5.11,13.23-7.2,20.01c-4.25,13.1-10.68,25.63-19.76,36.05
		c-8.29,6.97-19.55,9.87-30.23,8.59c-13.83-1.6-26.62-8.04-37.79-16.1c-12.28,2.92-25.43,5.5099-37.87,2.17
		c-15.27-8.73-27.91-21.36-38.92-34.93c-12.69-15.94-23.2-33.73-30.2-52.9c-5.08-14.36-8.34-29.74-6.64-45.01
		c1.24-13.29,7.42-26.17,17.56-34.94c4.92-4.34,10.58-7.79,16.57-10.44c7.96-4.88,16.77-8.19,25.47-11.5
		c0.43-1.57-0.59-3.29,0.22-4.91c2.44-10.26,8.16-19.76,15.95-26.86c6.92-6.35,16.42-10,25.85-9.09
		c11.97,1.1,22.63,7.62,31.69,15.14c11.32,12.76,25.36,23.32,41.37,29.42c20.27,7.95,42.58,8.75,64.01,6.47
		c16.39-1.68,32.56-4.97,48.63-8.5c28.9-14.4,57.7-28.98,86.58-43.41l0.45-0.61c-3.6-11.17-4.83-23.57-1.06-34.86
		c2.68-7.94,8.83-14.47,16.4-18c-1.09-7.76,3.43-14.78,8.19-20.46c7.99-8.97,18.56-16.31,30.59-18.31
		c7.6801-1.36,15.95,1.1,21.2401,6.92c9-0.73,17.87-2.58,26.86-3.31c4.43-0.44,9.11,0.91,12.12,4.31
		c5.91,6.46,9.52,14.56,13.96,22.02c24.09-12.51,47.74-26.02,71.87-38.47c-4.04-0.47-8.41-0.32-12.21-2.23
		c-8.59-3.52-14.13-12.29-15.02-21.35c-0.45-1.39,0.36-3.45-1.22-4.24c-15.61-9.45-33.16-16.07-51.38-17.91
		c-16.56-1.74-33.28,0.88-49.12,5.7c-21.82,6.71-42.41,16.79-64.09,23.92c-1.17-0.39-1.58-3.29,0.15-3.28
		c18.97-6.18,37.02-14.81,55.93-21.18c17.63-6.14,36.41-9.91,55.15-8.35c16.7599,1.28,33.03,6.66,47.83,14.52l-0.17-0.85
		c-18.07-22.24-38.02-43.67-50.13-69.97c-0.23-0.28-0.67-0.85-0.9-1.14c-14.42-7.32-30.52-11.72-46.77-11.27
		c-15.02,0.42-29.77,5-42.82,12.36c-1.25,1.19-2.67-1.03-2.42-2.15c15.2-8.6,32.61-13.87,50.19-13.16
		c13.96,0.27,27.61,4.25,40.24,10.04c-3.35-9.68-6.34-19.7-7.27-29.99c-3.05-28.95,4.84-57.77,15.69-84.36
		c5.83-9.76,8.79-21.34,7.33-32.69c-2.42-19.62-10.95-37.75-19.68-55.25c-10.21-20.36-21.78-40.21-28.99-61.91
		c-5.51-16.58-7.71-34.89-2.36-51.81c1.42-3.9,2.29-8.59,6.01-11.03c4.06-2.58,9.14-0.95,13.11,0.98
		c8.55,4.38,15.69,10.99,22.55,17.61c12.14,12.51,26.49,22.64,41.3799,31.6c15.52,9.49,31.8101,17.59,47.98,25.9
		c10.51,5.38,21.16,10.59,30.99,17.17c13.19-3.45,26.57-6.19,40.06-8.21c23.25-3.84,47.19-6.32,68.92-16.04
		c17.96-7.74,32.95-21.32,43.73-37.52c14.03-12.12,26.96-25.48,41.35-37.19C980.28,42.33,986.66,37.3,994.1,34.23 M983.24,54.03
		c-2.46,0.41-4.1,3.01-6.05,4.48l-0.06-0.09c-0.35,0.37-1.05,1.11-1.4,1.48c-1.28,0.53-2.17,1.7-3.25,2.52
		c-27.74,23.66-53.87,49.27-83.05,71.2c-0.2,0.29-0.6,0.86-0.8,1.15l-0.59-0.01c-3.63,1.98-6.46,6.35-11.0099,5.63
		c-22.57,0.47-45.13,2.67-67.26,7.11c-33.57,6.97-66.98,19.88-92.7,43.13c-9.77,8.44-18.2,18.44-25.13,29.32
		c-19.31,34.11-31.29,72.73-32.46,112.02c-0.39,18.69,1.9,37.59,8.2,55.25c0.58,1.42,2.17,1.92,3.32,2.8
		c13.48,8.58,25.37,19.33,38.02,29.03c2.68,1.69,5.5,4.41,8.88,3.89c0.48-1.95,3.23-2.08,3.9-0.16c-1.21,2.57-4.09,4.14-6.85,3.02
		c-6.1-2.23-10.87-6.86-15.9-10.79c-9.5-7.53-18.74-15.7-29.14-21.88c8.92,21.83,24.81,40.65,44.79,53.19
		c2.12,5.36,3.14,11.22,5.48,16.56c0.89,3.09,4.29,4.1,6.55,5.98c-0.17,1.47-1.05,2.28-2.64,2.43c2.67,4.33,5.89,8.86,10.8799,10.67
		c4.41,1.62,9.2-0.39,12.55-3.34c7.26-6.3,10.95-15.38,15.35-23.65c-0.25-4.35-4.83-6.49-7.63-9.2c-3.74-3.19-9.17-6.97-8.12-12.58
		c11.51,6.82,25.72,5.81,37.97,1.67c3.72-0.91,7.42-2.91,11.35-2.16l0.34,1.13c-3.75,6.44-7.28,13.48-7.03,21.13
		c5.3,7.69,2.07,17.53,5.01,25.96c3.7,11.57,13.93,19.23,23.66,25.65c3.98,1.52,8.46,1.19,12.61,0.53
		c9.6-1.85,18.42-6.36,26.75-11.32c17.49-10.7,33.04-24.18,48.54-37.51c3.06-2.56,5.99-5.35,9.48-7.33l-0.24,1.83
		c-6.24,10.46-13.79,20.06-20.7,30.07c-5.48,10.59-15.62,17.8-26.16,22.8c-17.82,8.2-37.36,11.91-56.8,13.53
		c1.5,1.14,2.96,2.35,4.03,3.94c6.9,9.39,9.86,21.37,8.94,32.94c-1.54,20.87-11.68,40.13-24.37,56.38
		c-0.87,4.71,1.9,9.57,5.58,12.44c6.18,4.73,14.31,5.79,21.87,5.94c22.23-19.91,38.5-45.24,54.87-69.92
		c17.61-26.55,34.68-54.03,58.13-75.93c17.27-16.28,39.2-28.42,63.07-30.85c15.01,3.09,30.12,12.13,35.76,27.01
		c-9.92-7.39-21.47-12.21-32.9-16.76c-20.29,0.18-39.6,9.47-54.38,23.02c-19.39,17.6-33.12,40.2-46.94,62.17
		c-14.07,22.4-27.6,45.63-46.76,64.18c-8.26,11.02-18.26,21.03-30.4,27.73c-5.84,2.98-12.83,5.73-19.35,3.34
		c-5.49-2-7.35-7.98-10.79-12.12c-12.85-16.99-31.41-28.48-50.29-37.7c-16.68-7.86-34.15-14.05-52.06-18.48
		c-16.0699,1.41-32.39,3.27-47.67,8.79c-17.03,6.23-32.05,16.73-46.26,27.79c-2.14,2.27-5.71,1.76-7.91,3.99
		c-7.36,6.35-7.04,18.75-0.99,25.89c4.26,5.07,11.65,6.13,17.73,4.24c-6.02,4.44-7.01,13.27-4.99,20.01
		c1.57,5.6,7.48,9.04,13.16,8.24c9.8-1.11,18.23-6.92,26.02-12.56c11.86-9.69,25.59-17.88,40.91-20.33
		c13.92-2.37,28.38,1.05,40.4901,8.09c12.59,7.15,23.12,17.38,32.49,28.3c17.47,20.67,31,44.24,44.54,67.56
		c21.14,8.78,45.1,9.22,67,3.08c45.14-12.4,82.56-43.17,127.52-56.04c11.71-2.98,23.41-6.05,35.02-9.47
		c3.67-0.92,7.2101-2.62,10.97-3.07c-4.5,6.62-11.8999,10.56-19.0299,13.79c-6.61,3.08-13.86,4.17-20.72,6.49
		c-42.71,13.73-79.75,40.63-122.43,54.43c-23.64,7.7401-49.54,9.9901-73.72,3.36c-3.43-2.55-6.54-5.49-9.52-8.55
		c-19.46-20.67-32.6-46.32-51.71-67.29c-8.15-8.77-17.88-16.99-29.85-19.68c-16.17,2.55-31.78,8.25-46,16.32
		c-15.68,8.82-29.79,20.08-43.96,31.08c-1.67,0.84-0.27,2.83,0.05,4.08c5.58,14.4,13.17,28.07,22.67,40.25
		c7.92,9.83,17.73,19.11,30.21,22.53c9.77,2.79,20.36,0.28,28.79-5.1c1.7-5.97,3.19-12,5.05-17.93c0.6-2.24,1.6-4.43,1.49-6.79
		c0.57-8.66,4.2-16.79,8.48-24.21c5.68-9.3,12.37-18.2,20.95-25.0099c1.53-0.98,3.36-2.72,5.31-1.82c0.67,1.54-0.08,3.19-0.55,4.69
		c-3.3,8.12-8.61,15.18-13.27,22.55c-7.71,16.15-13.58,33.12-18.59,50.29c-14.76,52.24-21.75,106.36-25.58,160.41
		c-3.49,54.95-3.86,110.25,1.83,165.0699c-11.6801,18.5901-21.9,38.48-26.83,60.02c-3.8,15.15-5.01,30.8101-8.83,45.95
		c-4.6,19.7401-14.46,37.8-26.07,54.25c-5.2,18.7101-9.25,37.77-12.57,56.92c-4.41,26.98-6.78,54.51-4.05,81.8
		c2.26,22.6799,8.52,45.35,20.89,64.6899c3.15,4.73,6.21,9.6801,10.64,13.36c22.16,20.5,43.6,42.9701,56.49,70.64
		c9.97,21.2001,13.09,45.5801,8.11,68.52c-0.33,3.01-2.08,5.54-3.3,8.25c-10.18,22.26-16.02,46.64-29.72,67.1901
		c-6.03,8.9399-14.41,16.96-25.06,19.84c-8.77,2.24-18.41,1.6899-26.63-2.1901c-14.86-5.1699-31.47,0.78-42.4,11.39
		c-7.31,6.98-13.25,16.1901-14.07,26.48c-0.51,6.15,2.02,12.5701,7.03,16.3201c6.11,4.5499,14.03,6.14,21.5,6.09
		c0.67-11.5,6.13-22.25,12.8-31.41c-0.77,10.64-2.2,21.29-1.88,31.99c0.45,2.6801,1.49,5.75,3.95,7.26
		c3.1,1.2301,5.8199-1.6,7.8199-3.59c5.34-6.0599,9.32-13.22,12.69-20.51l0.55,0.11c-1.6,6.4301-3.14,13.04-2.62,19.7201
		c0.28,2.46,0.97,5.5599,3.68,6.4299c3.31,0.83,6.02-1.66,8.95-2.54c18.83,3.17,38.78,1.4301,56.13-6.83
		c17.43-8.0699,31.68-21.78,42.71-37.3099c12.66-17.8201,21.57-38.03,28.36-58.7301c0.57-2.2,2.36-3.73,3.58-5.5399
		c11.32-14.8401,22.01-30.9301,26.14-49.4c3.62-15.91,1.62-32.36-1.05-48.24c-4.22-22.9601-9.5601-45.7001-14.32-68.55
		c-1.37-3.09-3.37-5.89-4.85-8.9299c-11.99-22.62-18.56-47.9601-19.95-73.49c-1.48-25.9801,2.1-52.0901,9.07-77.1101
		c5.27-18.1799,11.83-36.11,21.07-52.6699c-5.44,17.9199-8.77,36.41-11.81,54.87c-4.62,30.41-7.42,61.34-4.74,92.08
		c1.77,17.4401,5.14,35.26,14.12,50.5601c4.65,7.71,10.96,14.73,19.14,18.7799c12.85,7.41,26.47,13.4,40.24,18.89
		c39.59,15.39,80.83,26.05,122.29,35.03c0.29,0.1,0.86,0.3,1.15,0.4c7.26,9.7,13.14,20.47,17.11,31.9299
		c7.16,20.2001,7.94,41.9601,6.99,63.17c-1.32,26.72-4.59,53.34-4.59,80.12c0.21,3.84-1.08,7.5701-2.67,11.03
		c-4.11,8.38-10.77,15.15-17.7,21.26c-15.37,13.25-32.93,23.64-48.67,36.4299c-6.3799,5.4301-12.98,11.3201-16.14,19.29
		c-2.25,5.54-0.69,11.96,3.09,16.45c5.85,7.15,14.2,11.6101,22.34,15.65l0.73-0.3199c-0.71-14.36,7.84-27.59,18.46-36.5701
		c3.22-2.4199,6.64-5.4399,10.89-5.45c2.4399,0.47,1.59,3.5699,0.9399,5.1899c-2.96,6.9-7.89,12.7001-12.5699,18.4801
		c-3.03,5.34-3.86,12.0599-1.51,17.8199c2.68,6.77,8.68,11.76,15.3,14.48c3.36,1.23,7.17,2.29,10.69,1.0601
		c2.36-0.8,3.41-3.62,2.76-5.89c-1.52-8.55-2.41-17.5701,0.22-26c1.75-5.63,5.81-11.12,11.82-12.5c-0.05,4.51-0.83,9.02-1.47,13.5
		c-0.67,4.76-2.9,9.1899-3.15,14.04c-0.5,5.1799,0.76,10.73,4.28,14.71c4.11,4.77,10.48,6.97,16.64,7.4
		c15.24,0.98,30.87-7.3,38.16-20.8201c3.45-6.1699,4.7999-13.26,5.02-20.25c7.1-43.34,8.6799-87.2899,12.72-130.95
		c4.15-45.34,11.35-91.17,30.1-133.01c-1.27-6.8-3.76-13.3201-6.2999-19.73c-15.92-37.61-44.89-68.1-59.87-106.1801
		c-8.1201-20.25-9.9601-43.34-2.79-64.14c2.48-8.35,7.2-15.75,10.1899-23.89c4.7001-12.12,8.73-24.5099,11.77-37.1499
		c17.8-70.9801,9.0701-147.53-20.91-214c-3.39-15.41-2.58-31.41-1.1799-47.02c2.63-25.34,8.1-50.29,14.67-74.88
		c6.59-24.73,14.58-49.08,23.2599-73.15c14.51-39.38,30.8301-78.21,51.05-115.02c10.28-25.3,20.26-50.85,26.75-77.42
		c5.95-24.31,8.41-49.48,6.95-74.47c-1.4399-26.46-6.7999-52.57-14.1799-77.97c-3.16-9.48-4.15-19.47-6.66-29.11
		c-10.39-45.21-27.0499-88.69-37.58-133.87c-10.7101,0.4-21.42,1.03-32.12,1.5c-33.7401,1.69-67.65,2.81-100.98,8.72
		c-32.73,5.89-64.54,15.76-96.34,25.32c-0.82-1.01-0.95-2.06-0.37-3.13c15.6-4.44,31.05-9.43,46.73-13.58
		c28.89-8.21,58.46-14.23,88.43-16.6c31.2-2.66,62.52-3.59,93.79-5.25c-4.38-21.33-8.2101-42.95-8.6001-64.79
		c-0.6699-0.14-2.0199-0.42-2.6899-0.56c-15.05-0.24-30.14,0.2-45.0699,2.17c-30.0601,3.78-59.22,13.04-86.8201,25.36
		c-32.97,14.79-64,33.59-93.61,54.22c-1.06,0.56-1.97,1.84-3.29,1.56c-0.28-0.52-0.86-1.54-1.14-2.05
		c43.03-30.27,89.32-57.28,139.96-72.59c29.6299-9.01,60.75-12.62,91.6599-11.62l0.65-0.38c-2.09-14.96-7.09-29.85-14.9299-42.63
		l0.09-0.59c-6.1801-11.11-13.21-21.72-20.48-32.14c-12.8301-18.95-26.94-37.69-33.86-59.8c-4.22-36.52-2.18-73.4-4.98-110.01
		c-1.26-14.01-2.29-28.53-8.41-41.42l-0.64-0.2C990.42,47.59,986.38,50.34,983.24,54.03 M628.66,83.02
		c-1.73,4.53-0.92,9.47-0.35,14.14c2.66,16.14,7.75,31.77,13.41,47.08c7.52,19.44,16.1,38.71,28.25,55.76
		c4.07,5.15,8.16,10.89,14.32,13.65c3.12,1.43,6.18-0.91,8.03-3.26c4.74-5.92,7.79-12.94,11.44-19.54
		c6.18-8.86,15.58-14.62,24.44-20.43c6.94-4.06,13.94-8.12,20.57-12.7c3.1-2.35,6.58-4.87,7.82-8.73
		c0.93-3.21-1.57-6.04-3.9901-7.75c-7.44-5.1-16.36-7.24-24.81-9.97c-16.5099-8.1-30.48-20.55-45.44-30.88l0.14-0.26
		c-9.35-6.6-18.43-13.61-28.34-19.38c-5.85-3.2-12.14-7-19.06-6.44C630.85,74.79,628.95,79.27,628.66,83.02 M768.01,471.08
		c-3.62,3.61-6.46,8.84-5.52,14.07c-14.06,8.24-28.08,16.62-42.28,24.57c1.42,0.11,2.84-0.15,4.25-0.39
		c18.22-3.1,36.46-6.07,54.67-9.22c0.12-3.27-0.62-6.66-1.61-9.79c-1.33-3.67-5.68-4.2-8.5-6.21c2.08-1.14,4.46-3.06,6.97-1.89
		c2.57,1.18,4.52,3.35,6.37,5.44c2,5.1,4.11,10.18,5.87,15.37c1.41-0.42,1.96-1.92,2.71-3.03c3.69-6.69,3.34-14.91,0.99-21.97
		c-1.41-3.92-3.36-8.05-7.05-10.28C779.17,465.94,772.41,466.79,768.01,471.08 M617.94,514.34c-9.1,2.06-18.72,0.61-27.21-3.09
		c-4.68-2.09-10.29-1.72-14.69,0.87c-8.53,4.9-13.1,15.49-11.36,25.1c-5.85,3.3701-10.5,8.44-14.95,13.4301
		c-3.37,4.21-6.98,8.8-7.58,14.33c-0.6801,2.63,2.45,4.46,0.91,7.04c0.99,4.43,4.8,7.97,9,9.41c2.23,0.91,4.29-0.9,4.38-3.12
		c4.75-1.32,9.77-2.93,13.35-6.59c6.54-5.96,9.45-16.83,4.05-24.43c-0.6801-1.33-2.39-1.92-2.72-3.38
		c7.46,3.4901,16.51,4.91,24.24,1.42c7.82-3.57,13.08-11.43,14.85-19.68c5.33,7.33,13.73,12.64,22.81,13.66
		c7.93,0.88,15.74-4.33,18.93-11.36c-1.61-5.38-3.04-11.02-6.49-15.58c-1.91-2.6-5.22-4.19-8.45-3.53
		C630.45,509.88,624.49,513.2,617.94,514.34 M722.97,512.99c-8.27,2.56-15.9399,6.63-23.73,10.34
		c-87.89,42.39-175.78,84.77-263.67,127.15c-8.52,3.23-17.34,6.08-26.52,6.51c-9.67,0.27-19.45,0.8-29.02-0.98
		c-19.11-3.35-37.93-8.24-56.52-13.73l-1.05,0.39c4.92,6.29,8.74,13.35,12.68,20.27c9.62,17.67,18.05,36.04,24.49,55.12
		c4.85,15.04,9.09,30.94,6.61,46.84c8.14-15.33,17.45-30.04,27.07-44.48c5.26-7.31,10.28-15.07,17.44-20.69
		c15.47-11.08,31.35-21.64,47.9-31.04c85.01-41.34,170.07-82.56,255.09-123.85c6.75-3.19,13.34-6.7401,20.32-9.41
		c11.4-4.3,24.03-6.35,36.05-3.6c10.54,2.3,20.5,8.86,25.37,18.69c4.25,8.2,4.1,18.45-0.37,26.53
		c-3.93,7.55-10.96,12.84-18.19,16.92l0.19,0.65c3.46,1.58,3.49,6.4,6.86,7.87c14.36-5.35,25.64-19,26.25-34.59
		c1.27-25.53-18.36-48.65-42.16-55.84C753.45,507.37,737.46,508.28,722.97,512.99 M611.19,543.84c0.64,2.77,3.79,3.58,6.02,4.67
		c2.14-1.91,4.19-4.48,4.56-7.42c-0.43-2.63-3.85-2.31-5.74-1.75C613.96,540,611.15,541.31,611.19,543.84 M744.08,550.19
		c-8.21,0.83-16.6,2.1-24.05,5.83c-2.28,1.31-5.08,2.98-5.23,5.92c0.24,3.16,3.21,5.05,5.65,6.57c5.52,2.99,11.51,5.08,17.62,6.43
		c8.16,2.94,14.13,9.99,22.42,12.67c3.92,1.36,8.4,0.1,11.2-2.92c5.53-5.22,11.58-10.93,13.28-18.65c1.22-5.5-3.12-10.27-7.92-12.15
		C766.72,549.43,755.11,549.45,744.08,550.19 M591.33,557.02c-0.31,1.37-0.96,3.61,0.62,4.44c2.2-0.22,3.78-2.01,5.3-3.44
		c0.2-2.04-0.37-4.75-2.17-6.04C592.81,552.52,591.99,555.06,591.33,557.02 M239.11,617.97c-2,3.88-4.46,8.58-2.73,12.98l0.77,0.62
		c9.67-1.04,20.14,0.63,28.86,5.36c2.89,1.35,4.35,4.46,7.27,5.74c9.01,5.34,17.21,12,24.51,19.5c26.1,27.12,41.26,65,39.51,102.74
		c-0.48,5.22-0.3,10.77-2.84,15.52c-3.86,7.16-10.03,12.69-16.33,17.66c-7.56,5.72-15.63,10.77-24.04,15.14
		c0.3,6.5,5.97,11.37,11.82,13.23c8.98,2.89,18.72,2.2,27.87,0.58c8.92-11.92,15.31-25.79,17.97-40.47c4.02-21.12,1-42.94-4.93-63.4
		c-10.84-36.63-30.3-69.83-49.4-102.64c-8.55-8.65-18.98-16.88-31.53-18C254.8,601.46,244.37,608.53,239.11,617.97 M562.81,638.82
		c-17.97,8.87-35.24,19.1-52.2,29.77c-2.82,3.83-3.72,8.72-4.23,13.36c-0.93,8.52,1.8,17.81,8.65,23.32
		c8.04,6.56,18.92,7.93,28.96,7.93c1.51,0.37,2.34-1.15,3.24-2.02c3.27-3.66,4.11-8.84,7.5-12.43c3.58-3.85,8-6.77,12.27-9.8
		c8.56-5.71,17.32-11.18,26.33-16.15l0.43-0.82c-0.58-5.41-0.61-10.93-1.49-16.26c-3.32-0.16-6.34-2.08-8.06-4.89
		c-3.42-5.42-4.12-11.96-5.13-18.14C573.37,633.65,568.07,636.45,562.81,638.82 M202.56,655.58c-4.84,2.87-10.28,5.58-14.16,9.45
		c21.63,7.49,39.06,25.8799,45.43,47.87c5.84,12.45,11.21,25.2,14.62,38.56c3.04,12.03,5.08,24.87,2.02,37.11
		c-0.82,2.2-1.22,4.94-3.19,6.44c-0.36-12.26-3.65-24.23-6.5-36.09c-5.37-20.2-12.04-40.22-22.15-58.58
		c-5.21-9.05-11.29-18.1201-20.23-23.86c-6.19-4.05-14.47-4.71-21.06-1.22c-3.07,3.03-3.21,7.75-3.37,11.79
		c0.17,12.21,3.55,24.11,7.35,35.63c6.28,18.12,14.73,35.54,25.49,51.43c9.21,13.21,20.17,26.08,34.93,33.22
		c7.9,3.86,17.22,4.85,25.66,2.18c16.48-0.72,34.12-4.85,45.91-17.18c10.03-10.33,13.82-25.23,13.47-39.31
		c-0.45-18.31-6.33-36.11-14.62-52.3c-8.88-17.14-20.84-32.83-35.84-45.0699c-9.05-6.69-20.07-10.66-31.27-11.57
		C230.12,643.44,215.53,648.54,202.56,655.58 M683.25,658.17c-19.59,8.34-38.18,18.73-56.44,29.63
		c-10.08,5.7-19.9,12.07-30.81,16.11c-2.31,0.81-6.78,1.75-7.11-1.8c0.1-4.59,2.56-8.68,4.58-12.66
		c0.8101-1.67,2.4301-3.52,1.45-5.45c-2.57-1.04-5.27,0.41-7.67,1.29c-8.67,4.03-16.73,9.61-23.2,16.68
		c-2.31,2.82-5.09,6.13-4.41,10.04c1.78,4.52,6.47,7.41,11.24,7.68c8.53,0.64,16.89-1.72,25.05-3.9
		c34-16.47,66.61-35.63,99.33-54.46c4.5-2.79,9.45-5.13,13.69-8.19C700.21,649.27,691.2,654.83,683.25,658.17 M474.69,688.61
		c-4.93,6.97-6.7,16.28-3.48,24.34c4.57,12,14.37,20.97,24.02,29.01c10.05,2.65,20.61,1.25,30.79,0.12
		c12.61-3.72,25.46-7.02,37.37-12.67c1.61-1.0699,4.31-1.85,4.44-4.11c-1.14-1.46-3.21-1.52-4.89-1.82
		c-2.79-0.14-5.71-0.85-8.37,0.27c-13.82,4.45-29.55,4.15-42.53-2.75c-10.29-5.37-18.75-15.18-20.57-26.87
		c-1.23-6.91,0.46-14,3.66-20.15C486.94,676.28,479.1,681.14,474.69,688.61 M1208.3101,1127.24
		c-10.4601,11-22.89,20.52-37.3701,25.48c-20.21,7.0601-42.0299,5.72-63.0099,4.01c-19.29-1.95-39.37-1.9299-57.4701-9.61
		c6.4301,19.86,11.8301,40.14,19.9401,59.4301c29,2.63,58.38-0.99,86.38-8.77c20.53-6.0601,40.9099-14.63,57.12-28.9501
		c12.8199-11.1599,22.1-27.51,21.49-44.86c-0.48-3.52-4.61-4.33-7.51-3.86C1220.9301,1121.04,1214.49,1124.1,1208.3101,1127.24z"/>
	<path fill="#CCCCCC" d="M983.24,54.03c3.14-3.69,7.18-6.44,10.89-9.51l0.64,0.2c6.12,12.89,7.15,27.41,8.41,41.42
		c2.8,36.61,0.76,73.49,4.98,110.01c6.92,22.11,21.03,40.85,33.86,59.8c7.27,10.42,14.2999,21.03,20.48,32.14l-0.09,0.59
		c-13.87,18.47-33.0901,33.53-55.5601,39.77c-16.5099,4.75-33.99,5.09-50.95,3.02c-29.92-3.71-58.51-13.82-86.9-23.49
		c-10.47,5.56-22.03,9.56-33.99,9.67c-15.98,0.47-31.45-6-44.05-15.49c-13.57-10.02-24.61-23.04-34.33-36.72
		c-16.24-23.18-28.59-48.8-39.56-74.81c25.72-23.25,59.13-36.16,92.7-43.13c22.13-4.44,44.69-6.64,67.26-7.11
		c4.55,0.72,7.3799-3.65,11.0099-5.63l0.59,0.01c33.3,11.76,66.47,23.93,99.73,35.82c1.05-18.4,1.73-36.83,1.3-55.27
		c-0.48-14.34-1.23-28.86-5.05-42.77c-1.48-4.69-3.23-9.48-6.52-13.22c-0.59,0.14-1.77,0.42-2.36,0.57c0.35-0.37,1.05-1.11,1.4-1.48
		l0.06,0.09c0.74,1.82,2.24-0.7,3.08-1.2C981.29,56.25,982.27,55.15,983.24,54.03z"/>
	<path fill="#CCCCCC" d="M682.35,100.39c14.96,10.33,28.9301,22.78,45.44,30.88c8.45,2.73,17.37,4.87,24.81,9.97
		c2.42,1.71,4.92,4.54,3.9901,7.75c-1.2401,3.86-4.72,6.38-7.82,8.73c-6.63,4.58-13.63,8.64-20.57,12.7
		c-11.82-25.38-32.62-45.26-46.06-69.57C682.19,100.73,682.3,100.5,682.35,100.39z"/>
	<path d="M683.85,327.82c2.05-0.59,3.95,0.83,5.73,1.66c6.57,3.85,12.62,8.52,18.63,13.18c6.72,0.03,11.04,6.1,13.47,11.67
		c2.42,5.95,4.19,12.87,1.85,19.11c-1.26,3.55-7.3,4.81-8.9901,1.01c-9.46-13.47-20.34-25.96-28.82-40.1
		C684.78,332.35,682.89,330.09,683.85,327.82z"/>
	<path d="M855.56,337.63c10.84-3.2,22.04-5.82,33.41-5.74c1.95,0.23,4.71-0.1,5.77,2.01c-1.68,2.44-4.58,3.47-7.13,4.69
		c-7.33,3.08-14.99,5.28-22.62,7.46c-4.08,1.34-8.59,1.3-12.31,3.64c-10.75,5.79-15.04,18.33-24.65,25.43
		c-3.96,2.96-9,4.29-13.92,3.86c-1.66-7.7,1.12-15.83,6.41-21.51C829.75,347.34,842.77,341.79,855.56,337.63z"/>
	<path d="M194.51,706.91c0.41-1.94,2.06-4.49,4.39-3.44c3.74,1.51,6.3,4.8701,8.8,7.91c8.44,11.32,14.95,24.1,19.22,37.55
		c1.47,5.69,3.42,12.11,0.79,17.74c-2.86,4.58-9.26,2.83-13.26,0.9c-7.72-13.98-14.87-28.48-18.87-44.01
		C194.36,718.14,193.13,712.41,194.51,706.91z"/>
	<path fill="#CCCCCC" d="M1023.32,997.37c3.96-5.11,7.94-11.01,14.2401-13.35c-6.5701,24.59-12.04,49.54-14.67,74.88
		c-1.4,15.61-2.21,31.61,1.1799,47.02c29.9801,66.47,38.7101,143.0199,20.91,214c-5.52-0.5701-9.86-4.51-13.73-8.13
		c-9.42-9.5601-16.91-20.8-23.72-32.3101c-1.96-3.62-4.41-7.12-4.83-11.3199c-2.2-8.4401-9.86-13.49-16.13-18.8101
		c-8.32-6.4-15.54-14.5499-19.56-24.34c-3.35-7.74-4.72-16.15-5.69-24.45c-4.69-6.4801-4.04-15.01-3.86-22.5801
		c1.5-20.1,6.73-39.7,12.4-58.97c7.15-23.63,15.77-46.8101,25.61-69.4401C1003.52,1031.5699,1011.99,1013.59,1023.32,997.37z"/>
	<path fill="#CCCCCC" d="M1033.8101,1105.78c-2.9701-4.5901-4.4301-10.25-3.2301-15.65c1.12,5.5599,2.1801,11.36,4,16.62
		c-0.09,0.15-0.2899,0.45-0.39,0.6L1033.8101,1105.78z"/>
	<path fill="#CCCCCC" d="M1234.87,1110.84c1.91-0.9399,3.79-2.01,5.8199-2.6799c-0.24,0.85-0.46,1.72-0.6299,2.61
		C1238.3101,1110.78,1236.58,1110.8199,1234.87,1110.84z"/>
	<path fill="#CCCCCC" d="M1208.3101,1127.24c6.1799-3.14,12.62-6.2,19.5699-7.13c2.9-0.47,7.03,0.34,7.51,3.86
		c0.61,17.35-8.67,33.7001-21.49,44.86c-16.2101,14.3201-36.59,22.89-57.12,28.9501c-28,7.78-57.38,11.4-86.38,8.77
		c-8.11-19.29-13.51-39.5701-19.9401-59.4301c18.1001,7.6801,38.1801,7.66,57.4701,9.61c20.98,1.71,42.7999,3.05,63.0099-4.01
		C1185.42,1147.76,1197.85,1138.24,1208.3101,1127.24z"/>
</g>
</svg>
